<?xml version="1.0" standalone="no"?>
<!DOCTYPE svg PUBLIC "-//W3C//DTD SVG 20010904//EN"
 "http://www.w3.org/TR/2001/REC-SVG-20010904/DTD/svg10.dtd">
<svg version="1.0" xmlns="http://www.w3.org/2000/svg"
 width="240.000000pt" height="202.000000pt" viewBox="0 0 240.000000 202.000000"
 preserveAspectRatio="xMidYMid meet">

<g transform="translate(0.000000,202.000000) scale(0.100000,-0.100000)"
fill="#000000" stroke="none">
<path d="M350 1010 l0 -880 135 0 135 0 0 636 c0 354 4 633 9 630 4 -3 127
-170 272 -371 l264 -365 40 2 39 3 261 367 c143 202 263 367 268 368 4 0 7
-286 7 -635 l0 -635 135 0 135 0 0 880 0 881 -122 -3 -123 -3 -288 -410 c-158
-225 -292 -411 -296 -413 -5 -2 -146 184 -312 412 l-304 416 -127 0 -128 0 0
-880z"/>
</g>
</svg>
